<svg width="960" height="1080" viewBox="0 0 960 1080" fill="none" xmlns="http://www.w3.org/2000/svg">
  <defs>
    <linearGradient id="bg" x1="128" y1="82" x2="836" y2="988" gradientUnits="userSpaceOnUse">
      <stop stop-color="#F8FBFF"/>
      <stop offset="0.52" stop-color="#EFF5FF"/>
      <stop offset="1" stop-color="#E0EEFF"/>
    </linearGradient>
    <linearGradient id="panel" x1="250" y1="206" x2="708" y2="908" gradientUnits="userSpaceOnUse">
      <stop stop-color="#FFFFFF"/>
      <stop offset="1" stop-color="#F4F8FF"/>
    </linearGradient>
    <linearGradient id="blue" x1="274" y1="312" x2="514" y2="772" gradientUnits="userSpaceOnUse">
      <stop stop-color="#3B82F6"/>
      <stop offset="1" stop-color="#2563EB"/>
    </linearGradient>
    <filter id="shadow" x="166" y="136" width="628" height="826" filterUnits="userSpaceOnUse" color-interpolation-filters="sRGB">
      <feDropShadow dx="0" dy="30" stdDeviation="36" flood-color="#2563EB" flood-opacity="0.14"/>
    </filter>
  </defs>
  <rect width="960" height="1080" rx="72" fill="url(#bg)"/>
  <circle cx="754" cy="188" r="158" fill="#CFE3FF"/>
  <circle cx="206" cy="858" r="182" fill="#DCEBFF"/>
  <g filter="url(#shadow)">
    <rect x="210" y="176" width="540" height="748" rx="58" fill="url(#panel)"/>
    <rect x="252" y="216" width="456" height="664" rx="44" fill="#F8FBFF" stroke="#D8E4F8" stroke-width="6"/>
    <ellipse cx="480" cy="806" rx="214" ry="44" fill="#E7EEF8"/>
    <rect x="300" y="318" width="248" height="188" rx="34" fill="url(#blue)"/>
    <rect x="326" y="344" width="196" height="124" rx="26" fill="#F8FBFF"/>
    <path d="M350 396H412" stroke="#2563EB" stroke-width="18" stroke-linecap="round"/>
    <path d="M442 372V420" stroke="#93C5FD" stroke-width="18" stroke-linecap="round"/>
    <path d="M560 420C664 420 682 540 612 592" stroke="#9DBEF8" stroke-width="16" stroke-linecap="round"/>
    <rect x="586" y="560" width="70" height="144" rx="34" fill="#FFFFFF" stroke="#D8E4F8" stroke-width="6"/>
    <circle cx="620" cy="706" r="44" fill="#FFFFFF" stroke="#2563EB" stroke-width="10"/>
    <rect x="308" y="576" width="150" height="190" rx="34" fill="#FFFFFF" stroke="#D8E4F8" stroke-width="6"/>
    <rect x="334" y="606" width="98" height="78" rx="24" fill="#EAF2FF"/>
    <path d="M376 686V734" stroke="#2563EB" stroke-width="14" stroke-linecap="round"/>
    <path d="M344 710H408" stroke="#93C5FD" stroke-width="14" stroke-linecap="round"/>
    <path d="M292 768H474" stroke="#D8E4F8" stroke-width="14" stroke-linecap="round"/>
    <circle cx="554" cy="292" r="22" fill="#DBEAFE"/>
    <circle cx="592" cy="292" r="22" fill="#BFDBFE"/>
  </g>
</svg>
