<svg width="960" height="1080" viewBox="0 0 960 1080" fill="none" xmlns="http://www.w3.org/2000/svg">
  <defs>
    <linearGradient id="bg" x1="144" y1="84" x2="828" y2="972" gradientUnits="userSpaceOnUse">
      <stop stop-color="#F7FFFD"/>
      <stop offset="1" stop-color="#D8F5ED"/>
    </linearGradient>
    <linearGradient id="panel" x1="256" y1="246" x2="664" y2="846" gradientUnits="userSpaceOnUse">
      <stop stop-color="#FFFFFF"/>
      <stop offset="1" stop-color="#E9F8F4"/>
    </linearGradient>
    <linearGradient id="bottle" x1="0" y1="0" x2="1" y2="1">
      <stop stop-color="#F7FAFC"/>
      <stop offset="1" stop-color="#D8EDE7"/>
    </linearGradient>
    <linearGradient id="teal" x1="330" y1="346" x2="617" y2="772" gradientUnits="userSpaceOnUse">
      <stop stop-color="#14B8A6"/>
      <stop offset="1" stop-color="#0F766E"/>
    </linearGradient>
    <filter id="shadow" x="164" y="120" width="634" height="824" filterUnits="userSpaceOnUse" color-interpolation-filters="sRGB">
      <feDropShadow dx="0" dy="32" stdDeviation="38" flood-color="#0F766E" flood-opacity="0.16"/>
    </filter>
  </defs>
  <rect width="960" height="1080" rx="72" fill="url(#bg)"/>
  <circle cx="768" cy="202" r="146" fill="#B7EFE4" fill-opacity="0.6"/>
  <circle cx="214" cy="866" r="184" fill="#C9F4E9" fill-opacity="0.68"/>
  <g filter="url(#shadow)">
    <rect x="206" y="172" width="548" height="756" rx="56" fill="url(#panel)"/>
    <rect x="246" y="212" width="468" height="676" rx="42" fill="#F5FCFA" stroke="#C7E8E1" stroke-width="6"/>
    <rect x="280" y="758" width="400" height="78" rx="39" fill="#D6EEE8"/>
    <rect x="332" y="312" width="192" height="332" rx="46" fill="url(#bottle)"/>
    <rect x="356" y="260" width="144" height="88" rx="28" fill="#E0F4EE"/>
    <rect x="366" y="392" width="124" height="126" rx="26" fill="url(#teal)"/>
    <rect x="348" y="544" width="160" height="34" rx="17" fill="#ECFDF8"/>
    <rect x="556" y="390" width="92" height="220" rx="26" fill="#F4FFFC" stroke="#C7E8E1" stroke-width="5"/>
    <g fill="#14B8A6">
      <rect x="578" y="426" width="18" height="18" rx="9"/>
      <rect x="608" y="426" width="18" height="18" rx="9"/>
      <rect x="578" y="458" width="18" height="18" rx="9"/>
      <rect x="608" y="458" width="18" height="18" rx="9"/>
      <rect x="578" y="490" width="18" height="18" rx="9"/>
      <rect x="608" y="490" width="18" height="18" rx="9"/>
      <rect x="578" y="522" width="18" height="18" rx="9"/>
      <rect x="608" y="522" width="18" height="18" rx="9"/>
    </g>
    <g transform="rotate(-18 620 694)">
      <rect x="520" y="654" width="184" height="62" rx="31" fill="#E2FBF5"/>
      <path d="M520 685C520 667.879 533.879 654 551 654H595V716H551C533.879 716 520 702.121 520 685Z" fill="#14B8A6"/>
      <path d="M595 654H673C690.121 654 704 667.879 704 685C704 702.121 690.121 716 673 716H595V654Z" fill="#F8FFFD"/>
    </g>
    <rect x="430" y="422" width="24" height="66" rx="12" fill="#FFFFFF"/>
    <rect x="409" y="443" width="66" height="24" rx="12" fill="#FFFFFF"/>
    <rect x="308" y="238" width="142" height="16" rx="8" fill="#D5EAE4"/>
    <rect x="308" y="844" width="308" height="16" rx="8" fill="#D5EAE4"/>
  </g>
</svg>
